<svg width="116" height="126" viewBox="0 0 116 126" fill="none" xmlns="http://www.w3.org/2000/svg">
<path fill-rule="evenodd" clip-rule="evenodd" d="M2.12141 80.7491C3.2651 84.0996 5.14669 87.7263 8.7991 88.7757C9.07585 88.8677 9.35237 88.9045 9.62911 88.8677C11.0495 88.8677 12.4146 87.892 12.802 86.4745C13.2816 84.7439 12.2302 82.9398 10.5146 82.4612C10.4962 82.4612 10.4592 82.4427 10.4408 82.4427C10.4322 82.4342 10.423 82.4251 10.4126 82.4186C10.4008 82.411 10.3865 82.4059 10.367 82.4059C10.3486 82.3691 10.3117 82.3506 10.2748 82.3323C10.2011 82.2402 10.1087 82.1481 10.035 82.0745C9.94279 81.9456 9.85046 81.8352 9.75825 81.7064C9.5369 81.3566 9.33401 80.9883 9.13113 80.6202C8.81757 79.9758 8.55928 79.3131 8.301 78.6319C7.93205 77.4905 7.63695 76.3491 7.37867 75.1709C7.02818 73.3299 6.7699 71.4889 6.64076 69.6112V69.4639C6.53008 67.2179 6.54855 64.9719 6.67769 62.7259V62.6891C6.67769 62.595 6.69109 62.5012 6.69503 62.4071C6.93935 59.2802 7.39342 56.1714 8.00579 53.0976C8.68831 49.8207 9.55537 46.5806 10.6068 43.4325C10.6131 43.4325 10.6173 43.4304 10.62 43.4276L10.622 43.4251L10.624 43.4212C10.6253 43.4174 10.6253 43.4141 10.6253 43.4141C10.6253 43.4141 10.6438 43.3957 10.6438 43.3773V43.3589C11.6215 40.5974 12.7466 37.9096 14.0379 35.2955C15.2553 32.9574 16.5835 30.6746 18.0593 28.4839C19.3874 26.5877 20.8078 24.7466 22.3389 22.9977C23.5563 21.6538 24.8477 20.3836 26.1943 19.187C27.6147 17.9904 29.0903 16.8673 30.6214 15.818C30.4923 15.8916 30.3816 15.9652 30.2709 16.0389C32.0751 14.8203 33.9513 13.7276 35.8994 12.7428C35.9541 12.7242 36.0085 12.6881 36.0632 12.6699C36.0811 12.661 36.0979 12.6521 36.1141 12.6431L36.1503 12.6229L36.1644 12.6148L36.2108 12.5886C36.2284 12.5789 36.2466 12.5692 36.2661 12.5595L36.2477 12.5714L36.2307 12.5821C36.2138 12.5924 36.1986 12.601 36.1844 12.6087C36.1677 12.6177 36.1524 12.6254 36.137 12.6331C38.3874 11.547 40.6934 10.5712 43.0729 9.74279C45.7846 8.84067 48.5147 8.08592 51.3187 7.4968C53.5508 7.09178 55.7827 6.77879 58.0516 6.61311H58.273C59.8594 6.53946 61.4459 6.52103 63.0323 6.61311C64.7478 6.74199 66.445 6.9629 68.1236 7.29426C69.4886 7.58882 70.8353 7.95699 72.1819 8.39886C73.9528 9.02478 75.6868 9.74273 77.3838 10.5712C79.4118 11.6186 81.371 12.7686 83.2616 14.0216C83.3277 14.0695 83.3963 14.1184 83.4712 14.1611L83.2616 14.0216L83.2464 14.0106L83.2081 13.9828C83.1888 13.9689 83.1697 13.9552 83.1506 13.942C86.534 16.2381 89.7706 18.8082 92.8422 21.4882C94.2994 22.7768 95.7198 24.1391 97.0479 25.5935C97.5645 26.201 98.0625 26.8269 98.5237 27.4897C98.9294 28.1156 99.3168 28.7416 99.6673 29.4043L100.221 30.6194C100.212 30.6489 100.204 30.6784 100.196 30.708L100.18 30.7729C100.138 30.7588 100.096 30.7445 100.055 30.7298C98.8373 30.3248 97.6014 29.9014 96.3839 29.478C95.8091 29.2635 95.2343 29.0464 94.6592 28.829C93.1117 28.2442 91.5615 27.6584 90.0013 27.1216C88.6547 26.6613 87.3265 26.2379 85.943 25.9433L85.7018 25.8928C84.5396 25.6489 83.3332 25.3958 82.143 25.4646C81.1469 25.5199 80.1324 25.6672 79.3022 26.3115C78.6382 26.8086 78.2508 27.4897 77.9925 28.263C77.6236 29.3307 78.0294 30.6746 78.8226 31.4294C79.21 31.7976 79.6344 32.129 80.1508 32.3315C81.1838 32.7365 82.3275 32.5892 83.2129 32.0369C83.295 32.046 83.3816 32.0597 83.4704 32.0756C83.5293 32.0861 83.5893 32.0977 83.6497 32.1096L83.7446 32.1285L83.7466 32.1288C85.2962 32.4602 86.7731 32.9022 88.2673 33.4176C88.1198 33.3624 87.9907 33.3256 87.8615 33.2704C89.2326 33.7392 90.5774 34.2516 91.9261 34.7656L91.9292 34.7667L91.9366 34.7694L92.4841 34.978L92.9533 35.1561C93.2232 35.2582 93.4935 35.36 93.7645 35.4612C94.8281 35.8529 95.9091 36.2186 96.9835 36.5821C97.2381 36.6682 97.4922 36.7542 97.7457 36.8404C97.9811 36.9204 98.2159 37.0006 98.4499 37.0812C98.9935 37.2665 99.5657 37.4042 100.139 37.5421C100.363 37.5961 100.588 37.6502 100.811 37.7071C101.678 37.9281 102.527 38.0937 103.394 38.2594C103.509 38.2792 103.624 38.2996 103.741 38.3201C104.596 38.4707 105.487 38.6276 106.363 38.6276C106.88 38.6276 107.378 38.5724 107.876 38.4435C109.481 38.0017 110.699 36.5841 111.215 35.0561C111.811 33.3053 111.998 31.4603 112.183 29.6371L112.23 29.1834C112.244 29.0342 112.26 28.8845 112.276 28.7344C112.305 28.4512 112.336 28.1666 112.367 27.881L112.368 27.8763L112.37 27.8582L112.371 27.8475C112.424 27.3618 112.477 26.8735 112.525 26.3851C112.691 24.7098 112.875 23.053 113.078 21.3961C113.447 18.2296 113.89 15.0816 114.425 11.9335C114.738 10.1846 113.355 8.49088 111.639 8.26998C109.832 8.03064 108.245 9.30091 107.95 11.0499C107.434 14.0875 106.991 17.1435 106.64 20.1995L106.587 20.6487L106.578 20.7299L106.572 20.7759L106.543 21.0277C106.504 21.3566 106.465 21.6851 106.427 22.0133C106.398 22.2613 106.369 22.5093 106.341 22.7573C106.3 23.1139 106.259 23.4707 106.219 23.828L106.179 24.1963C106.154 24.4224 106.129 24.6488 106.105 24.8756C106.042 25.4921 105.987 26.1123 105.931 26.7337L105.931 26.7366L105.883 27.2731C104.462 24.328 102.532 21.7877 100.202 19.4631C97.6987 16.9645 94.9689 14.7624 92.2233 12.5476L92.2209 12.5457L92.1797 12.5125C91.8042 12.2096 91.4284 11.9064 91.0528 11.6021C89.6877 10.4975 88.2119 9.50345 86.7547 8.52774C85.0576 7.40472 83.3236 6.33698 81.5159 5.37969C78.3246 3.68597 74.9304 2.21322 71.4071 1.34796C67.7732 0.464274 64.0285 -0.0511954 60.2837 0.00403151C56.5759 0.0776299 52.8867 0.501073 49.2711 1.27431C39.771 3.31776 30.3633 7.22066 22.8555 13.48C15.569 19.5551 9.9796 27.6922 6.3272 36.4184C4.35339 41.0761 2.84075 45.9363 1.78927 50.8885C0.7378 55.896 0 61.0138 0 66.1317C0.0184647 71.0655 0.516561 76.0546 2.12141 80.7491ZM35.971 12.7067L35.9086 12.7382C35.9383 12.7249 35.9546 12.7231 35.971 12.7067Z" fill="black"/>
<path d="M54.141 126C45.9322 126 37.9079 123.018 31.1195 118.526C27.8176 116.353 24.7554 113.739 22.1545 110.775C20.8447 109.284 19.6458 107.719 18.5943 106.007C18.5286 105.902 18.4624 105.794 18.3963 105.685C18.3378 106.26 18.2839 106.836 18.2312 107.411L18.1685 108.104C18.1384 108.436 18.1083 108.768 18.0777 109.1C17.9118 110.867 17.7826 112.616 17.6719 114.365C17.9672 114.936 18.0962 115.599 18.004 116.28C17.9118 116.979 17.5982 117.495 17.1923 117.992C17.1001 118.176 16.971 118.342 16.8603 118.507C16.27 119.336 15.2554 119.778 14.2592 119.778C13.9272 119.796 13.6506 119.759 13.3738 119.686C12.0088 119.317 10.939 117.973 10.9758 116.537C11.039 114.836 11.1832 113.135 11.3274 111.434L11.3281 111.427L11.4 110.573C11.5661 108.529 11.7505 106.504 11.9349 104.479C11.9959 103.895 12.0731 103.311 12.1503 102.726L12.152 102.714C12.1911 102.418 12.2302 102.123 12.2671 101.828C12.3778 100.981 12.5254 100.153 12.7283 99.3244C12.9681 98.3303 13.4477 97.4466 14.0748 96.6365C14.6282 95.9002 15.4399 95.4399 16.27 95.0533C17.2845 94.5931 18.4099 94.6115 19.4981 94.6851C20.4963 94.7505 21.5234 95.1778 22.4636 95.5691C22.5834 95.6189 22.7018 95.6682 22.8185 95.7161C23.5821 96.0233 24.3127 96.4209 25.0379 96.8155L25.0399 96.8166L25.045 96.8192C25.3345 96.9768 25.623 97.1339 25.9125 97.2844L25.8633 97.2611C25.8246 97.2427 25.7872 97.225 25.7516 97.2072L28.0205 98.3671C29.0904 98.8825 30.1788 99.3428 31.2856 99.7478C31.9497 99.9687 32.6322 100.153 33.3147 100.318C33.5788 100.366 33.843 100.408 34.108 100.446C34.5649 100.512 35.0245 100.566 35.4914 100.613C36.1186 100.631 36.7459 100.613 37.373 100.595C38.4982 100.503 39.6051 100.337 40.7118 100.134C42.4643 99.8031 44.1613 101.221 44.4012 102.914C44.641 104.755 43.3497 106.265 41.5972 106.596C38.9963 107.093 36.3583 107.296 33.7389 106.983C30.7394 106.637 27.937 105.529 25.241 104.231C25.8305 105.024 26.4527 105.794 27.0982 106.541C28.039 107.553 29.0166 108.548 30.0311 109.487C31.5253 110.794 33.0933 112.009 34.7351 113.113C36.2478 114.089 37.7972 114.991 39.4021 115.801C40.8778 116.501 42.3904 117.127 43.9215 117.679C45.2866 118.139 46.6516 118.507 48.0536 118.82C49.5293 119.096 50.9866 119.299 52.4808 119.409C53.7352 119.483 54.9895 119.483 56.2624 119.409C57.7196 119.299 59.1584 119.096 60.5788 118.82C62.2944 118.452 63.9731 118.01 65.6517 117.458C67.8099 116.703 69.9129 115.801 71.979 114.807C75.0042 113.261 77.9003 111.493 80.7227 109.634C80.6857 109.652 80.6305 109.689 80.5935 109.707C84.3198 107.167 87.8799 104.424 91.2741 101.46C91.2187 101.497 91.182 101.534 91.1266 101.57C93.6169 99.3796 96.0703 97.1336 98.2655 94.6667C99.5014 93.2307 100.682 91.758 101.77 90.2115C102.637 88.9044 103.412 87.5421 104.132 86.1614C105.054 84.2836 105.884 82.3874 106.566 80.4175C107.212 78.4845 107.747 76.5515 108.171 74.5633C108.749 71.6638 109.15 68.7819 109.391 65.8487C109.393 65.8176 109.396 65.786 109.398 65.7542C109.403 65.6944 109.407 65.6346 109.407 65.5794V65.5057C109.463 64.5116 109.481 63.5359 109.426 62.5418C109.352 61.7501 109.26 60.9585 109.13 60.1669C109.001 59.5962 108.854 59.0255 108.669 58.4548C108.374 57.6632 108.061 56.9084 107.692 56.1536C107.672 56.1175 107.651 56.0814 107.629 56.045L107.579 55.9606C107.547 55.9081 107.515 55.8549 107.484 55.8004C107.468 55.7724 107.452 55.744 107.437 55.7153C107.423 55.6899 107.41 55.6642 107.396 55.6381C107.341 55.5645 107.267 55.4724 107.212 55.3988C107.138 55.3067 107.064 55.2331 106.972 55.1595C106.957 55.144 106.938 55.1286 106.919 55.1146C106.892 55.095 106.865 55.0781 106.843 55.0674C106.382 54.8649 105.939 54.6808 105.478 54.4967C103.836 53.834 103.062 51.8273 103.744 50.2257C104.445 48.5688 106.382 47.8324 108.024 48.4952C108.798 48.8081 109.573 49.1211 110.293 49.5261C111.012 49.9495 111.676 50.5755 112.211 51.2198C113.595 52.9135 114.406 55.0122 115.07 57.0741C115.753 59.136 115.919 61.3635 115.993 63.5175C116.03 64.6773 115.919 65.8371 115.827 66.9785C115.734 68.3593 115.568 69.7399 115.384 71.1023C114.72 75.944 113.539 80.6937 111.713 85.2226C109.942 89.6961 107.452 93.8014 104.408 97.5202C101.291 101.313 97.6199 104.608 93.8936 107.774C90.1305 110.996 86.1275 113.923 81.9401 116.593C73.7313 121.803 64.5264 125.853 54.639 126H54.141Z" fill="black"/>
<path d="M25.9125 97.2844C25.9798 97.3166 26.0501 97.3512 26.1204 97.3913L26.0056 97.3326L25.9125 97.2844Z" fill="black"/>
</svg>
