<svg width="28" height="26" viewBox="0 0 28 26" fill="none" xmlns="http://www.w3.org/2000/svg">
<path d="M15.7185 1.74054C15.5452 1.43877 15.2954 1.18806 14.9943 1.01371C14.6932 0.839367 14.3514 0.747559 14.0035 0.747559C13.6555 0.747559 13.3137 0.839367 13.0126 1.01371C12.7115 1.18806 12.4617 1.43877 12.2885 1.74054L0.288716 22.1578C-0.511034 23.5193 0.447966 25.25 2.00372 25.25H26.0015C27.5572 25.25 28.518 23.5175 27.7165 22.1578L15.7185 1.74054ZM14 7.75004C14.9362 7.75004 15.6695 8.55854 15.575 9.49129L14.9625 15.6285C14.9419 15.8696 14.8316 16.0942 14.6533 16.2579C14.4751 16.4216 14.2419 16.5124 14 16.5124C13.758 16.5124 13.5248 16.4216 13.3466 16.2579C13.1684 16.0942 13.058 15.8696 13.0375 15.6285L12.425 9.49129C12.403 9.2712 12.4273 9.04894 12.4964 8.83883C12.5656 8.62872 12.6779 8.43542 12.8263 8.27138C12.9747 8.10735 13.1558 7.9762 13.3579 7.88641C13.5601 7.79662 13.7788 7.75016 14 7.75004ZM14.0035 18.25C14.4676 18.25 14.9127 18.4344 15.2409 18.7626C15.5691 19.0908 15.7535 19.5359 15.7535 20C15.7535 20.4642 15.5691 20.9093 15.2409 21.2375C14.9127 21.5657 14.4676 21.75 14.0035 21.75C13.5393 21.75 13.0942 21.5657 12.766 21.2375C12.4378 20.9093 12.2535 20.4642 12.2535 20C12.2535 19.5359 12.4378 19.0908 12.766 18.7626C13.0942 18.4344 13.5393 18.25 14.0035 18.25Z" fill="#FF4343"/>
</svg>
