<svg width="194" height="199" viewBox="0 0 194 199" fill="none" xmlns="http://www.w3.org/2000/svg">
<g filter="url(#filter0_d_4_70)">
<path d="M162.335 116.438C164.167 119.074 166.793 121.057 169.831 122.096C172.868 123.134 176.159 123.175 179.221 122.212C182.284 121.249 184.958 119.333 186.855 116.742C188.751 114.152 189.77 111.023 189.763 107.813C189.77 104.602 188.751 101.473 186.855 98.883C184.958 96.2926 182.284 94.376 179.221 93.4129C176.159 92.4499 172.868 92.4907 169.831 93.5295C166.793 94.5684 164.167 96.5508 162.335 99.1875H155.263C155.263 85.6463 150.95 73.3125 143.188 63.0488L154.745 51.4913C159.575 52.3538 164.492 50.9738 168.2 47.4375C173.979 41.4863 173.979 31.9125 168.2 25.875C162.249 20.0963 152.675 20.0963 146.638 25.875C143.102 29.5838 141.722 34.5 142.584 39.33L131.027 50.8875C123.092 44.9363 113.777 40.9688 103.513 39.5025V27.4275C106.15 25.5961 108.132 22.9698 109.171 19.9322C110.21 16.8945 110.251 13.6043 109.287 10.5417C108.324 7.47918 106.408 4.80456 103.817 2.90815C101.227 1.01174 98.0983 -0.00719545 94.8878 3.82507e-05C91.6774 -0.00719545 88.5488 1.01174 85.9583 2.90815C83.3679 4.80456 81.4513 7.47918 80.4882 10.5417C79.5252 13.6043 79.566 16.8945 80.6049 19.9322C81.6437 22.9698 83.6261 25.5961 86.2628 27.4275V39.5025C78.5004 40.6238 71.2553 43.125 64.7003 46.92L55.1266 33.2063C56.7653 28.7213 56.3341 23.5463 53.4016 19.4063C52.2647 17.7792 50.8181 16.3923 49.1445 15.325C47.4709 14.2577 45.6032 13.5311 43.6484 13.1866C41.6936 12.8421 39.69 12.8865 37.7524 13.3174C35.8148 13.7483 33.9812 14.5571 32.3566 15.6975C25.5428 20.4413 23.8178 29.8425 28.6478 36.6563C31.5803 40.8825 36.2378 43.125 40.9816 43.125L51.1591 57.615C47.4503 61.3238 44.5178 65.4638 42.0166 70.035C39.2977 68.9728 36.3301 68.7169 33.4695 69.2982C30.6089 69.8795 27.9765 71.2733 25.8878 73.3125C20.1091 79.35 20.1091 88.8375 25.8878 94.875C28.3891 97.2038 31.4078 98.5838 34.5128 99.1875C34.5128 103.845 35.1166 108.33 36.0653 112.643L24.7666 115.661C21.1441 112.643 16.1416 111.349 11.1391 112.643C7.27323 113.695 3.98371 116.24 1.99418 119.717C0.0046581 123.195 -0.521901 127.32 0.530345 131.186C1.58259 135.052 4.12745 138.342 7.60508 140.331C11.0827 142.321 15.2082 142.847 19.0741 141.795C23.9903 140.415 27.6991 136.793 29.2516 132.308L42.2753 128.771C46.1566 135.585 51.3316 141.623 57.3691 146.625L47.8816 163.875C43.1378 164.565 38.8253 167.239 36.3241 171.81C35.384 173.554 34.7967 175.467 34.5956 177.438C34.3946 179.409 34.5838 181.401 35.1524 183.299C35.7211 185.197 36.658 186.965 37.9098 188.501C39.1615 190.037 40.7036 191.311 42.4478 192.251C44.1921 193.191 46.1045 193.779 48.0758 193.98C50.047 194.181 52.0386 193.992 53.9367 193.423C55.8349 192.854 57.6024 191.917 59.1385 190.666C60.6745 189.414 61.949 187.872 62.8891 186.128C65.3041 181.643 65.2178 176.468 63.0616 172.241L72.2904 155.25C79.2766 158.01 86.8666 159.563 94.8878 159.563H96.4404C95.3191 161.805 94.8878 164.393 94.8878 167.153C95.5779 175.519 102.823 181.729 111.103 181.125C119.383 180.521 125.679 173.19 125.075 164.91C124.73 160.598 122.574 156.803 119.469 154.301C123.523 152.49 127.404 150.161 131.027 147.488L151.209 167.67C150.347 172.5 151.727 177.416 155.263 181.125C161.3 186.904 170.788 186.904 176.825 181.125C182.863 175.346 182.604 165.6 176.825 159.563C173.117 156.026 168.2 154.646 163.37 155.509L143.188 135.326C147.414 129.72 150.692 123.338 152.762 116.438H162.335ZM81.9503 99.1875C74.7916 99.1875 69.0128 93.4088 69.0128 86.25C69.0128 79.0913 74.7916 73.3125 81.9503 73.3125C89.1091 73.3125 94.8878 79.0913 94.8878 86.25C94.8878 93.4088 89.1091 99.1875 81.9503 99.1875ZM112.138 125.063C107.394 125.063 103.513 121.181 103.513 116.438C103.513 111.694 107.394 107.813 112.138 107.813C116.882 107.813 120.763 111.694 120.763 116.438C120.763 121.181 116.882 125.063 112.138 125.063Z" fill="#BFB9FF"/>
<path d="M163.567 115.582L163.12 114.938H162.335H152.762H151.646L151.325 116.007C149.307 122.733 146.111 128.956 141.99 134.423L141.205 135.465L142.127 136.387L162.31 156.569L162.863 157.123L163.634 156.985C167.993 156.207 172.413 157.443 175.765 160.624C181.008 166.128 181.158 174.901 175.788 180.041C170.339 185.257 161.783 185.265 156.325 180.065C153.143 176.713 151.907 172.293 152.686 167.934L152.823 167.163L152.27 166.609L132.087 146.427L131.174 145.514L130.136 146.281C126.589 148.898 122.801 151.17 118.857 152.932L116.619 153.932L118.528 155.469C121.325 157.722 123.268 161.142 123.58 165.025C124.12 172.482 118.44 179.086 110.994 179.629C103.562 180.171 97.0409 174.613 96.3879 167.09C96.3944 164.501 96.8058 162.186 97.782 160.233L98.8674 158.063H96.4404H94.8878C87.0629 158.063 79.6595 156.548 72.8415 153.855L71.6062 153.367L70.9722 154.534L61.7435 171.525L61.3665 172.219L61.7255 172.923C63.6646 176.724 63.7429 181.378 61.5687 185.416C60.722 186.987 59.5743 188.375 58.1909 189.503C56.8076 190.63 55.2157 191.474 53.5063 191.986C51.7968 192.498 50.0032 192.669 48.2279 192.487C46.4526 192.306 44.7304 191.777 43.1595 190.931C41.5886 190.084 40.1999 188.936 39.0726 187.553C37.9453 186.17 37.1015 184.578 36.5894 182.868C36.0772 181.159 35.9068 179.365 36.0879 177.59C36.2688 175.816 36.7971 174.095 37.6427 172.525C39.8991 168.405 43.7813 165.987 48.0975 165.359L48.8362 165.252L49.1959 164.598L58.6834 147.348L59.2811 146.261L58.3261 145.47C52.4197 140.576 47.3652 134.676 43.5787 128.029L43.0036 127.019L41.8823 127.324L28.8585 130.86L28.0934 131.068L27.8341 131.817C26.4422 135.838 23.1122 139.102 18.6742 140.349C15.1939 141.295 11.4805 140.82 8.34994 139.029C5.21762 137.237 2.92545 134.274 1.97769 130.792C1.02992 127.31 1.5042 123.594 3.29618 120.462C5.08661 117.333 8.04593 115.042 11.524 114.092C16.0414 112.927 20.5456 114.096 23.8063 116.814L24.4032 117.311L25.1538 117.11L36.4525 114.092L37.8386 113.721L37.5303 112.32C36.5997 108.09 36.0128 103.715 36.0128 99.1875V97.9511L34.7991 97.7151C31.949 97.1609 29.2075 95.9042 26.9417 93.8066C21.7538 88.3539 21.7578 79.8161 26.9539 74.3681C28.8332 72.54 31.1985 71.2904 33.7682 70.7682C36.3461 70.2443 39.0205 70.4749 41.4707 71.4322L42.6993 71.9122L43.3325 70.7551C45.7785 66.2848 48.6296 62.2659 52.2198 58.6757L53.1111 57.7844L52.3866 56.7529L42.2091 42.2629L41.7611 41.625H40.9816C36.7105 41.625 32.5218 39.6081 29.8802 35.8012L29.8759 35.795L29.8716 35.7888C25.5303 29.6645 27.0743 21.2028 33.2137 16.9286L33.2184 16.9252C34.6816 15.8981 36.333 15.1697 38.078 14.7816C39.8231 14.3936 41.6275 14.3535 43.3881 14.6638C45.1486 14.9741 46.8307 15.6285 48.338 16.5897C49.8452 17.5509 51.1481 18.8 52.172 20.2654L52.1776 20.2733C54.7997 23.9752 55.2029 28.6266 53.7177 32.6915L53.4498 33.4248L53.8967 34.0649L63.4704 47.7787L64.2593 48.9086L65.4519 48.2182C71.837 44.5216 78.899 42.0818 86.4773 40.9871L87.7628 40.8014V39.5025V27.4275V26.6431L87.1186 26.1956C84.7445 24.5465 82.9595 22.1819 82.0242 19.4468C81.0888 16.7117 81.052 13.7492 81.9191 10.9917C82.7863 8.23421 84.512 5.82599 86.8444 4.11848C89.1768 2.41096 91.9938 1.49352 94.8845 1.50005L94.8912 1.50003C97.7819 1.49352 100.599 2.41096 102.931 4.11848C105.264 5.82599 106.989 8.23421 107.857 10.9917C108.724 13.7492 108.687 16.7117 107.752 19.4468C106.816 22.1819 105.031 24.5465 102.657 26.1956L102.013 26.6431V27.4275V39.5025V40.8035L103.301 40.9875C113.31 42.4174 122.39 46.2848 130.127 52.0875L131.167 52.8681L132.087 51.9482L143.645 40.3907L144.198 39.8371L144.061 39.0663C143.282 34.7069 144.518 30.287 147.7 26.935C153.156 21.7375 161.777 21.7495 167.136 26.9321C172.338 32.3878 172.327 41.0118 167.144 46.3719C163.792 49.556 159.37 50.7934 155.009 50.0146L154.238 49.877L153.685 50.4306L142.127 61.9881L141.204 62.9118L141.991 63.9536C149.56 73.9607 153.763 85.9776 153.763 99.1875V100.688H155.263H162.335H163.12L163.567 100.043C165.216 97.6692 167.581 95.8842 170.316 94.9488C173.051 94.0135 176.014 93.9767 178.771 94.8438C181.529 95.711 183.937 97.4367 185.644 99.7691C187.352 102.101 188.269 104.919 188.263 107.809L188.263 107.816C188.269 110.707 187.352 113.524 185.644 115.856C183.937 118.188 181.529 119.914 178.771 120.781C176.014 121.648 173.051 121.612 170.316 120.676C167.581 119.741 165.216 117.956 163.567 115.582ZM67.5128 86.25C67.5128 94.2372 73.9632 100.688 81.9503 100.688C89.9375 100.688 96.3878 94.2372 96.3878 86.25C96.3878 78.2629 89.9375 71.8125 81.9503 71.8125C73.9632 71.8125 67.5128 78.2629 67.5128 86.25ZM102.013 116.438C102.013 122.01 106.566 126.563 112.138 126.563C117.71 126.563 122.263 122.01 122.263 116.438C122.263 110.865 117.71 106.313 112.138 106.313C106.566 106.313 102.013 110.865 102.013 116.438Z" stroke="black" stroke-width="3"/>
</g>
<defs>
<filter id="filter0_d_4_70" x="0" y="0" width="193.763" height="198.058" filterUnits="userSpaceOnUse" color-interpolation-filters="sRGB">
<feFlood flood-opacity="0" result="BackgroundImageFix"/>
<feColorMatrix in="SourceAlpha" type="matrix" values="0 0 0 0 0 0 0 0 0 0 0 0 0 0 0 0 0 0 127 0" result="hardAlpha"/>
<feOffset dx="4" dy="4"/>
<feComposite in2="hardAlpha" operator="out"/>
<feColorMatrix type="matrix" values="0 0 0 0 0 0 0 0 0 0 0 0 0 0 0 0 0 0 1 0"/>
<feBlend mode="normal" in2="BackgroundImageFix" result="effect1_dropShadow_4_70"/>
<feBlend mode="normal" in="SourceGraphic" in2="effect1_dropShadow_4_70" result="shape"/>
</filter>
</defs>
</svg>
